<svg width="208" height="106" viewBox="0 0 208 106" fill="none" xmlns="http://www.w3.org/2000/svg">
<path d="M204 0H4C1.79086 0 0 1.79086 0 4V102C0 104.209 1.79086 106 4 106H204C206.209 106 208 104.209 208 102V4C208 1.79086 206.209 0 204 0Z" fill="white"/>
<g clip-path="url(#clip0_1807_239)">
<path d="M46.8677 34.7801L62.6471 44.1401V62.8601L46.8677 72.2201L31.0882 62.8601V44.1401L46.8677 34.7801ZM46.8677 34.3344L30.653 43.9172V63.0829L46.8677 72.6658L63.0824 63.0829V43.9172L46.8677 34.3344Z" fill="#0A7BE0"/>
<path d="M130.771 51.4942H135.885L135.232 55.1713H130.771V59.517H136.865L137.191 63.5285H125.765V43.4713H137.191L136.865 47.3713H130.771V51.4942V51.4942Z" fill="#0A7BE0"/>
<path d="M99.1029 54.6142V63.417H95.2941V62.5256C93.9882 63.1942 92.6823 63.5285 91.4853 63.5285H91.1588C89.8529 63.5285 88.8735 62.9713 88.1117 61.9685C87.5676 61.1885 87.35 60.297 87.35 59.2942V59.1827C87.35 57.3999 87.8941 56.2856 89.0912 55.7285C89.5265 55.3942 90.8323 55.2827 92.7912 55.2827H94.8588V54.837C94.8588 53.8342 94.75 53.277 94.4235 53.1656C94.097 52.9427 93.5529 52.8313 92.7912 52.8313H88.7647L88.8735 49.2656L93.5529 49.1542C96.2735 49.1542 98.0147 49.8227 98.6676 51.2713C98.8853 52.0513 99.1029 53.1656 99.1029 54.6142ZM91.8117 58.2913C91.7029 58.4027 91.5941 58.9599 91.5941 59.2942C91.5941 60.0742 92.0294 60.5199 92.7912 60.5199C93.2264 60.5199 93.8794 60.297 94.75 59.9627V58.0685C94.75 57.957 92.3559 57.7342 91.8117 58.2913Z" fill="#0A7BE0"/>
<path d="M124.241 54.6142V63.417H120.432V62.5256C119.127 63.1942 117.821 63.5285 116.624 63.5285H116.297C114.991 63.5285 114.012 62.9713 113.25 61.9685C112.706 61.1885 112.488 60.297 112.488 59.2942V59.1827C112.488 57.3999 113.032 56.2856 114.229 55.7285C114.665 55.3942 115.971 55.2827 117.929 55.2827H119.997V54.837C119.997 53.8342 119.888 53.277 119.562 53.1656C119.235 52.9427 118.691 52.8313 117.929 52.8313H113.794L113.903 49.2656L118.582 49.1542C121.303 49.1542 123.044 49.8227 123.697 51.2713C124.024 52.0513 124.241 53.1656 124.241 54.6142ZM116.95 58.2913C116.841 58.4027 116.732 58.9599 116.732 59.2942C116.732 60.0742 117.168 60.5199 117.929 60.5199C118.365 60.5199 119.018 60.297 119.888 59.9627V58.0685C119.888 57.957 117.385 57.7342 116.95 58.2913Z" fill="#0A7BE0"/>
<path d="M150.468 54.6142V63.417H146.659V62.5256C145.353 63.1942 144.047 63.5285 142.85 63.5285H142.524C141.218 63.5285 140.238 62.9713 139.476 61.9685C138.932 61.1885 138.715 60.297 138.715 59.2942V59.1827C138.715 57.3999 139.259 56.2856 140.456 55.7285C140.891 55.3942 142.197 55.2827 144.156 55.2827H146.224V54.837C146.224 53.8342 146.115 53.277 145.788 53.1656C145.462 52.9427 144.918 52.8313 144.156 52.8313H140.129L140.238 49.2656L144.918 49.1542C147.638 49.1542 149.379 49.8227 150.032 51.2713C150.25 52.0513 150.468 53.1656 150.468 54.6142ZM143.176 58.2913C143.068 58.4027 142.959 58.9599 142.959 59.2942C142.959 60.0742 143.394 60.5199 144.156 60.5199C144.591 60.5199 145.244 60.297 146.115 59.9627V58.0685C146.115 57.957 143.612 57.7342 143.176 58.2913Z" fill="#0A7BE0"/>
<path d="M110.421 63.4171H108.244C107.809 63.4171 107.373 63.4171 107.156 63.4171C106.285 63.3057 105.632 63.1943 105.088 62.9714C104.435 62.6371 103.891 62.1914 103.565 61.5228C103.129 60.7428 103.021 59.74 103.021 58.5143V52.8314H100.953V49.1543H102.912V44.5857L107.156 45.4771V49.1543H110.421L109.985 52.8314H107.265V58.18C107.265 58.2914 107.265 58.4028 107.265 58.5143C107.265 58.7371 107.265 58.96 107.373 59.0714C107.482 59.4057 107.809 59.6286 108.135 59.8514C108.462 59.9628 108.897 60.0743 109.55 60.1857C109.659 60.1857 109.768 60.1857 109.876 60.1857C109.985 60.1857 110.094 60.1857 110.094 60.1857H110.421V63.4171V63.4171Z" fill="#0A7BE0"/>
<path d="M177.456 55.06V57.6228H169.621V58.0686C169.621 59.0714 169.947 59.6286 170.6 59.8514C171.035 59.9628 171.579 60.0743 172.123 60.0743H172.45C173.973 60.0743 176.259 59.74 177.782 59.4057L177.129 62.9714C177.129 62.9714 176.368 63.3057 174.953 63.64C174.082 63.7514 172.994 63.7514 171.797 63.7514C168.75 63.7514 166.791 62.7486 165.921 60.6314C165.594 59.8514 165.268 58.96 165.268 57.9571V54.5028C165.268 52.0514 166.465 50.38 168.532 49.4886C169.403 49.1543 170.382 49.0428 171.471 49.0428C174.3 49.0428 176.259 50.0457 177.129 51.94C177.238 52.6086 177.456 53.6114 177.456 55.06ZM173.321 54.3914C173.321 53.3886 172.994 52.72 172.668 52.6086C172.341 52.3857 171.906 52.3857 171.471 52.3857C170.273 52.3857 169.729 52.9428 169.729 54.0571L169.621 54.7257H173.321V54.3914V54.3914Z" fill="#0A7BE0"/>
<path fill-rule="evenodd" clip-rule="evenodd" d="M76.9029 43.1371H69.2853V63.4171H76.9029C81.6912 63.4171 85.6088 60.0742 85.6088 55.9514V50.6028C85.6088 46.4799 81.6912 43.1371 76.9029 43.1371ZM80.8206 56.1742C80.8206 57.9571 79.0794 59.5171 76.9029 59.5171H74.4V47.1485H76.9029C79.0794 47.1485 80.8206 48.5971 80.8206 50.4914V56.1742Z" fill="#0A7BE0"/>
<path d="M157.432 63.8628C156.671 63.8628 155.8 63.8628 154.821 63.7514C154.494 63.7514 154.059 63.6399 153.732 63.6399L152.862 63.5285L152.318 59.6285L153.297 59.9628L154.494 60.2971C154.929 60.4085 155.365 60.4085 155.8 60.4085C156.344 60.4085 156.779 60.5199 157.215 60.5199C158.738 60.5199 159.5 60.5199 159.826 59.8514C159.935 59.6285 159.935 58.8485 159.826 58.6257C159.718 58.4028 159.391 58.0685 158.956 57.9571C158.738 57.8457 158.521 57.8457 158.194 57.7342L157.324 57.5114C156.888 57.3999 156.562 57.2885 156.235 57.2885C155.8 57.1771 155.474 57.0657 155.147 56.9542C154.385 56.6199 153.732 56.2857 153.297 55.8399C152.862 55.3942 152.644 54.9485 152.426 54.2799C152.318 53.8342 152.318 53.3885 152.426 52.8314C152.644 51.2714 153.297 50.1571 154.603 49.5999C155.038 49.3771 155.691 49.1542 156.344 49.0428C156.562 49.0428 156.888 48.9314 157.215 48.9314L158.085 48.8199H158.629C159.282 48.8199 160.044 48.8199 160.806 48.9314L161.785 49.0428L162.656 49.1542L162.982 52.6085C162.547 52.4971 162.003 52.3857 161.35 52.3857C160.479 52.2742 159.718 52.2742 158.956 52.2742C157.432 52.2742 156.453 52.1628 156.235 52.8314C156.126 53.0542 156.126 53.3885 156.235 53.6114C156.344 53.9457 156.671 54.1685 157.215 54.3914C157.432 54.5028 157.65 54.6142 157.976 54.7257L160.044 55.2828C160.479 55.3942 160.806 55.5057 161.132 55.6171C161.894 55.9514 162.438 56.2857 162.765 56.6199C163.2 57.0657 163.526 57.5114 163.635 58.1799C163.744 58.6257 163.744 59.5171 163.635 60.0742C163.418 61.6342 162.765 62.7485 161.459 63.3057C161.024 63.5285 160.371 63.7514 159.718 63.8628C159.5 63.8628 159.174 63.9742 158.847 63.9742H158.085H157.432V63.8628Z" fill="#0A7BE0"/>
<path d="M46.8676 40.4628L57.8588 46.9257V59.9628L46.8676 66.4257L35.8765 59.9628V47.0371L46.8676 40.4628ZM46.8676 37.0085L32.9382 45.2543V61.7457L46.8676 69.9914L60.7971 61.7457V45.2543L46.8676 37.0085Z" fill="#0A7BE0"/>
<path d="M40.1207 53.723C39.6854 53.723 39.2501 53.5001 39.0324 53.0544C38.7059 52.3858 38.9236 51.6058 39.4677 51.2715L44.0383 48.5972C44.6912 48.263 45.453 48.4858 45.7795 49.043C46.1059 49.7115 45.8883 50.4915 45.3442 50.8258L40.7736 53.5001C40.5559 53.6115 40.3383 53.723 40.1207 53.723Z" fill="#53BAF9"/>
<path d="M48.1735 48.9314C47.7382 48.9314 47.3029 48.7086 47.0853 48.2628C46.7588 47.5943 46.9765 46.8143 47.5206 46.48L49.1529 45.4771C49.8059 45.1428 50.5676 45.3657 50.8941 45.9228C51.2206 46.5914 51.0029 47.3714 50.4588 47.7057L48.8265 48.7086C48.6088 48.82 48.3912 48.9314 48.1735 48.9314Z" fill="#53BAF9"/>
<path d="M42.0794 57.7342C41.6441 57.7342 41.2088 57.5114 40.9912 57.0657C40.6647 56.3971 40.8823 55.6171 41.4265 55.2828C42.0794 54.9485 42.8412 55.1714 43.1676 55.7285C43.4941 56.3971 43.2765 57.1771 42.7323 57.5114C42.5147 57.6228 42.297 57.7342 42.0794 57.7342Z" fill="#2DAAF7"/>
<path d="M45.5618 55.6172C45.1265 55.6172 44.6912 55.3943 44.4736 54.9486C44.1471 54.28 44.3648 53.5 44.9089 53.1657L51.1118 49.4886C51.7648 49.1543 52.5265 49.3772 52.853 49.9343C53.1795 50.6029 52.9618 51.3829 52.4177 51.7172L46.2148 55.3943C45.9971 55.6172 45.7795 55.6172 45.5618 55.6172Z" fill="#2DAAF7"/>
<path d="M43.9294 61.6342C43.4941 61.6342 43.0588 61.4114 42.8411 60.9657C42.5147 60.2971 42.7323 59.5171 43.2764 59.1828L52.9617 53.5C53.6147 53.1657 54.3764 53.3885 54.7029 53.9457C55.0294 54.6142 54.8117 55.3942 54.2676 55.7285L44.5823 61.4114C44.3647 61.6342 44.147 61.6342 43.9294 61.6342Z" fill="#0A7BE0"/>
</g>
<defs>
<clipPath id="clip0_1807_239">
<rect width="148" height="39" fill="white" transform="translate(30 34)"/>
</clipPath>
</defs>
</svg>
