<svg width="54" height="54" viewBox="0 0 54 54" fill="none" xmlns="http://www.w3.org/2000/svg">
<mask id="mask0_1807_242" style="mask-type:alpha" maskUnits="userSpaceOnUse" x="0" y="0" width="54" height="54">
<rect width="54" height="54" fill="white"/>
</mask>
<g mask="url(#mask0_1807_242)">
<rect width="54" height="54" fill="white"/>
<path d="M27.2147 10.096L41.6031 18.6309V35.7006L27.2147 44.2355L12.8264 35.7006V18.6309L27.2147 10.096ZM27.2147 9.68958L12.4294 18.4277V35.9038L27.2147 44.6419L42 35.9038V18.4277L27.2147 9.68958Z" fill="#0A7BE0"/>
<path d="M27.3194 15.5748L37.3416 21.4679V33.3558L27.3194 39.2489L17.2971 33.3558V21.5695L27.3194 15.5748ZM27.3194 12.425L14.6179 19.9439V34.9815L27.3194 42.5003L40.0208 34.9815V19.9439L27.3194 12.425Z" fill="#0A7BE0"/>
<path d="M21.1672 27.6661C20.7703 27.6661 20.3734 27.4629 20.1749 27.0564C19.8772 26.4468 20.0757 25.7356 20.5718 25.4307L24.7395 22.9922C25.3349 22.6874 26.0295 22.8906 26.3272 23.3986C26.6249 24.0083 26.4264 24.7195 25.9303 25.0243L21.7626 27.4629C21.5641 27.5645 21.3657 27.6661 21.1672 27.6661Z" fill="#53BAF9"/>
<path d="M28.5101 23.2969C28.1132 23.2969 27.7163 23.0937 27.5178 22.6873C27.2201 22.0776 27.4186 21.3664 27.9147 21.0616L29.4032 20.1471C29.9986 19.8423 30.6932 20.0455 30.9909 20.5535C31.2885 21.1632 31.0901 21.8744 30.5939 22.1792L29.1055 23.0937C28.907 23.1953 28.7086 23.2969 28.5101 23.2969Z" fill="#53BAF9"/>
<path d="M22.9532 31.3237C22.5563 31.3237 22.1594 31.1205 21.9609 30.7141C21.6632 30.1045 21.8617 29.3932 22.3578 29.0884C22.9532 28.7836 23.6478 28.9868 23.9455 29.4948C24.2432 30.1045 24.0447 30.8157 23.5486 31.1205C23.3501 31.2221 23.1517 31.3237 22.9532 31.3237Z" fill="#2DAAF7"/>
<path d="M26.1286 29.3933C25.7317 29.3933 25.3348 29.1901 25.1363 28.7836C24.8386 28.174 25.0371 27.4628 25.5333 27.1579L31.1894 23.805C31.7848 23.5001 32.4794 23.7034 32.7771 24.2114C33.0747 24.821 32.8763 25.5323 32.3801 25.8371L26.724 29.1901C26.5256 29.3933 26.3271 29.3933 26.1286 29.3933Z" fill="#2DAAF7"/>
<path d="M24.6401 34.8799C24.2432 34.8799 23.8463 34.6767 23.6478 34.2702C23.3501 33.6606 23.5486 32.9494 24.0447 32.6446L32.8762 27.4627C33.4716 27.1579 34.1662 27.3611 34.4639 27.8691C34.7616 28.4787 34.5631 29.19 34.067 29.4948L25.2355 34.6767C25.037 34.8799 24.8386 34.8799 24.6401 34.8799Z" fill="#0A7BE0"/>
</g>
</svg>
