<svg width="208" height="106" viewBox="0 0 208 106" fill="none" xmlns="http://www.w3.org/2000/svg">
<path d="M204 0H4C1.79086 0 0 1.79086 0 4V102C0 104.209 1.79086 106 4 106H204C206.209 106 208 104.209 208 102V4C208 1.79086 206.209 0 204 0Z" fill="white"/>
<path opacity="0.997" fill-rule="evenodd" clip-rule="evenodd" d="M104 23.3813C106.686 23.1741 108.632 24.2615 109.839 26.6433C110.782 29.3372 110.14 31.5662 107.914 33.3303C106.568 34.1867 105.111 34.4476 103.543 34.1132C101.303 33.4602 99.9436 31.9923 99.4659 29.7095C99.2026 26.7664 100.431 24.7331 103.152 23.6096C103.445 23.5419 103.728 23.4657 104 23.3813Z" fill="#9298A2"/>
<path opacity="0.998" fill-rule="evenodd" clip-rule="evenodd" d="M116.983 27.0999C118.72 27.0433 119.449 27.8697 119.168 29.579C118.64 30.5873 117.825 30.9243 116.722 30.5902C115.755 30.0613 115.44 29.2676 115.776 28.209C116.026 27.665 116.428 27.2953 116.983 27.0999Z" fill="#1B4B88"/>
<path fill-rule="evenodd" clip-rule="evenodd" d="M88.7992 27.9479C91.9693 27.6793 94.4376 28.8536 96.2039 31.4708C97.4584 33.7004 97.6107 36.0056 96.6606 38.3862C95.2676 41.1986 92.9951 42.6774 89.843 42.8225C85.9765 42.6015 83.5301 40.6226 82.5036 36.8857C82.0108 33.5567 83.1307 30.9362 85.8634 29.0244C86.7754 28.4632 87.754 28.1044 88.7992 27.9479Z" fill="#144885"/>
<path fill-rule="evenodd" clip-rule="evenodd" d="M119.853 37.9296C119.859 37.8646 119.837 37.8103 119.788 37.7665C119.665 37.7156 119.556 37.7265 119.462 37.7991C117.441 38.2403 115.419 38.6861 113.395 39.1365C112.93 40.2497 112.103 40.6955 110.915 40.474C110.798 40.479 110.689 40.5116 110.589 40.5718C108.858 42.0969 107.118 43.6083 105.37 45.106C105.27 45.1012 105.205 45.1447 105.174 45.2364C105.087 45.3669 104.979 45.4757 104.848 45.5626C104.724 45.5782 104.637 45.6434 104.587 45.7584C104.544 45.8453 104.478 45.9106 104.391 45.9541C104.202 46.0562 104.028 46.1867 103.87 46.3455C103.786 46.4182 103.786 46.4834 103.87 46.5412C104.611 48.5243 104.154 50.1662 102.5 51.4668C101.21 52.2 99.8834 52.2761 98.5199 51.6952C98.4764 51.7169 98.433 51.7387 98.3894 51.7604C96.102 55.3094 93.8404 58.8758 91.6045 62.4597C93.3366 64.8439 93.6519 67.4101 92.5505 70.158C90.9799 73.1568 88.4899 74.5594 85.0806 74.3659C81.5026 73.7672 79.3606 71.6904 78.6545 68.1355C78.3402 64.5111 79.8081 61.9124 83.0582 60.3394C85.6775 59.356 88.124 59.6714 90.3976 61.2854C92.6662 57.7693 94.917 54.2464 97.1499 50.7166C97.2014 50.6981 97.2449 50.6655 97.2804 50.6187C97.2293 50.4805 97.1423 50.3827 97.0194 50.3251C96.4339 49.3542 96.2708 48.3104 96.5301 47.1936C97.4248 44.827 99.1101 43.9245 101.586 44.4862C102.045 44.6555 102.469 44.8838 102.858 45.1712C105.142 43.1923 107.425 41.2133 109.709 39.2344C109.591 37.8741 110.2 37.0912 111.535 36.8858C112.138 36.9155 112.638 37.1546 113.036 37.6034C114.908 37.1546 116.789 36.7413 118.679 36.3639C118.967 36.3408 119.25 36.2865 119.527 36.2008C119.586 36.0899 119.608 35.9703 119.592 35.8419C120.018 33.9055 121.225 32.8617 123.213 32.7104C125.782 32.9957 127.021 34.4309 126.932 37.0163C126.599 38.5672 125.674 39.5784 124.159 40.0499C122.188 40.4015 120.752 39.6947 119.853 37.9296Z" fill="#174986"/>
<path fill-rule="evenodd" clip-rule="evenodd" d="M119.592 35.842C119.608 35.9704 119.586 36.09 119.527 36.2009C119.25 36.2866 118.967 36.3409 118.679 36.364C118.907 36.2791 119.147 36.2031 119.397 36.1356C119.48 36.0437 119.545 35.9458 119.592 35.842Z" fill="#B7C6DB"/>
<path opacity="0.989" fill-rule="evenodd" clip-rule="evenodd" d="M101.586 37.4729C102.633 37.3269 103.34 37.7401 103.706 38.7125C103.901 39.6822 103.564 40.3889 102.695 40.8328C101.521 41.1601 100.728 40.7579 100.314 39.6258C100.17 38.5645 100.594 37.8469 101.586 37.4729Z" fill="#9298A2"/>
<path opacity="0.176" fill-rule="evenodd" clip-rule="evenodd" d="M119.462 37.7992C119.556 37.7266 119.665 37.7157 119.788 37.7665C119.837 37.8103 119.859 37.8647 119.853 37.9296C119.746 37.8265 119.616 37.7831 119.462 37.7992Z" fill="#EEF2F6"/>
<path opacity="0.99" fill-rule="evenodd" clip-rule="evenodd" d="M76.4036 42.3659C77.979 42.2341 78.6858 42.9518 78.5239 44.5188C78.2716 45.3244 77.7171 45.7594 76.8603 45.8236C75.6228 45.6756 75.0465 44.9797 75.1315 43.736C75.2798 43.0117 75.7039 42.555 76.4036 42.3659Z" fill="#9399A3"/>
<path opacity="0.998" fill-rule="evenodd" clip-rule="evenodd" d="M113.721 42.3659C116.837 42.2111 119.24 43.4289 120.93 46.0193C122.575 49.4245 122.086 52.4798 119.462 55.1854C117.075 57.1163 114.444 57.5294 111.568 56.425C108.121 54.6094 106.74 51.7715 107.425 47.9112C108.396 44.7767 110.494 42.9283 113.721 42.3659Z" fill="#9298A2"/>
<path opacity="0.996" fill-rule="evenodd" clip-rule="evenodd" d="M127.812 43.6055C129.785 43.3683 131.21 44.1295 132.086 45.8889C132.706 47.6796 132.304 49.1909 130.879 50.423C129.971 51.0522 128.971 51.2696 127.878 51.0754C126.323 50.7599 125.333 49.8357 124.909 48.3027C124.568 45.9173 125.536 44.3516 127.812 43.6055Z" fill="#9298A2"/>
<path opacity="0.01" fill-rule="evenodd" clip-rule="evenodd" d="M105.37 45.1061C105.339 45.1978 105.274 45.2413 105.174 45.2365C105.205 45.1448 105.27 45.1013 105.37 45.1061Z" fill="#DEE6EF"/>
<path opacity="0.01" fill-rule="evenodd" clip-rule="evenodd" d="M104.848 45.5627C104.798 45.6777 104.711 45.7429 104.587 45.7585C104.637 45.6435 104.724 45.5783 104.848 45.5627Z" fill="#E7EDF3"/>
<path opacity="0.997" fill-rule="evenodd" clip-rule="evenodd" d="M86.5159 45.7585C89.1632 45.6362 91.0443 46.767 92.1591 49.1509C92.9693 51.5968 92.4365 53.6954 90.5607 55.4465C88.2556 57.0558 85.9504 57.0558 83.6453 55.4465C81.7155 53.6491 81.2045 51.507 82.1122 49.0204C83.0142 47.1621 84.4821 46.0747 86.5159 45.7585Z" fill="#9298A2"/>
<path opacity="0.489" fill-rule="evenodd" clip-rule="evenodd" d="M104.391 45.9541C104.217 46.1498 104.044 46.3455 103.87 46.5413C103.786 46.4835 103.786 46.4182 103.87 46.3455C104.028 46.1867 104.202 46.0563 104.391 45.9541Z" fill="#EBEFF5"/>
<path opacity="0.329" fill-rule="evenodd" clip-rule="evenodd" d="M97.0194 50.3252C97.1423 50.3827 97.2293 50.4806 97.2804 50.6188C97.2449 50.6656 97.2014 50.6982 97.1499 50.7166C97.1431 50.5729 97.0997 50.4424 97.0194 50.3252Z" fill="#D7DFEB"/>
<path opacity="0.996" fill-rule="evenodd" clip-rule="evenodd" d="M76.7298 52.739C78.3544 52.5457 79.6049 53.1329 80.4811 54.5005C81.2984 56.2543 81.0048 57.7874 79.6004 59.0999C77.9881 60.1471 76.4223 60.0819 74.9031 58.9042C73.62 57.4686 73.4569 55.9137 74.4138 54.2395C75.009 53.4584 75.781 52.9582 76.7298 52.739Z" fill="#9298A2"/>
<path fill-rule="evenodd" clip-rule="evenodd" d="M125.66 54.4353C128.397 54.2754 130.343 55.4279 131.499 57.893C132.419 60.9971 131.473 63.3349 128.661 64.9062C125.845 65.9173 123.551 65.2323 121.778 62.8512C120.865 61.2511 120.713 59.5767 121.321 57.8277C122.188 55.9486 123.634 54.8178 125.66 54.4353Z" fill="#154886"/>
<path opacity="0.995" fill-rule="evenodd" clip-rule="evenodd" d="M99.2375 55.6095C101.264 55.4101 102.623 56.2583 103.315 58.1539C103.657 60.0256 102.993 61.4066 101.325 62.2966C99.6063 62.8976 98.182 62.4952 97.0519 61.0896C96.015 59.2469 96.2869 57.6268 97.8674 56.2293C98.2977 55.9486 98.7544 55.742 99.2375 55.6095Z" fill="#9298A2"/>
<path opacity="0.997" fill-rule="evenodd" clip-rule="evenodd" d="M112.22 60.6331C114.921 60.466 116.846 61.5968 117.994 64.0255C118.852 66.5829 118.254 68.7249 116.2 70.4516C114.728 71.4654 113.119 71.7481 111.372 71.2997C108.333 70.0834 107.105 67.8543 107.686 64.6127C108.42 62.3889 109.931 61.0624 112.22 60.6331Z" fill="#9298A2"/>
<path fill-rule="evenodd" clip-rule="evenodd" d="M100.086 65.1997C103.246 65.3705 105.149 67.0015 105.794 70.0927C105.997 72.5027 105.095 74.362 103.087 75.6707C101.173 76.671 99.2595 76.671 97.3455 75.6707C95.0475 74.107 94.2102 71.965 94.8338 69.2446C95.4536 67.32 96.7258 66.0478 98.6503 65.428C99.1339 65.3232 99.6123 65.2471 100.086 65.1997Z" fill="#154886"/>
<path opacity="0.999" fill-rule="evenodd" clip-rule="evenodd" d="M124.029 69.2446C125.561 69.2442 126.224 70.0054 126.018 71.528C125.423 72.6799 124.542 72.9735 123.376 72.4087C122.736 71.9236 122.508 71.2821 122.691 70.4842C122.942 69.8522 123.388 69.439 124.029 69.2446Z" fill="#1D4C88"/>
<path opacity="0.999" fill-rule="evenodd" clip-rule="evenodd" d="M108.567 74.6595C110.129 74.4796 111.358 75.0234 112.253 76.2905C113.204 78.0796 112.954 79.6779 111.503 81.0856C110.592 81.7634 109.57 82.0027 108.436 81.8032C106.34 81.1451 105.416 79.7207 105.664 77.5301C106.061 75.991 107.029 75.0342 108.567 74.6595Z" fill="#174986"/>
<path opacity="0.989" fill-rule="evenodd" clip-rule="evenodd" d="M92.8441 77.1387C94.267 77.1588 94.9303 77.8765 94.8339 79.2916C94.4653 80.3626 93.7151 80.7867 92.5831 80.5637C91.629 80.1454 91.2484 79.4169 91.4414 78.3782C91.699 77.7178 92.1666 77.3046 92.8441 77.1387Z" fill="#9399A3"/>
</svg>
