<svg width="54" height="54" viewBox="0 0 54 54" fill="none" xmlns="http://www.w3.org/2000/svg">
<mask id="mask0_2592_10" style="mask-type:luminance" maskUnits="userSpaceOnUse" x="0" y="0" width="54" height="54">
<rect width="54" height="54" fill="white"/>
</mask>
<g mask="url(#mask0_2592_10)">
<rect width="54" height="54" fill="white"/>
<path d="M20.9509 17.5126V37.6765L25.5849 34.7334V14.6321L20.9509 17.5126Z" fill="#00A6B6"/>
<path d="M28.9037 12.6281V32.7294L31.4711 31.1013V11L28.9037 12.6281Z" fill="#00A6B6"/>
<path d="M37.5454 30.7254C37.6706 37.3632 32.3479 42.8738 25.7101 42.9991C20.2621 43.0617 15.5655 39.5549 14 34.6705C16.1291 37.9894 19.8864 40.1812 24.0819 40.1185C30.5319 39.9933 35.7294 34.6705 35.6042 28.2206C35.5415 26.0915 34.978 24.0876 33.9134 22.3342C36.1051 24.4633 37.4828 27.4691 37.5454 30.7254Z" fill="#00A6B6"/>
</g>
</svg>
