<svg width="54" height="54" viewBox="0 0 54 54" fill="none" xmlns="http://www.w3.org/2000/svg">
<g clip-path="url(#clip0_10001_15650)">
<mask id="mask0_10001_15650" style="mask-type:alpha" maskUnits="userSpaceOnUse" x="0" y="0" width="54" height="54">
<path d="M54 0H0V54H54V0Z" fill="white"/>
</mask>
<g mask="url(#mask0_10001_15650)">
<path d="M54 0H0V54H54V0Z" fill="#30ACFC"/>
<path d="M46 0H8C3.58172 0 0 3.58172 0 8V46C0 50.4183 3.58172 54 8 54H46C50.4183 54 54 50.4183 54 46V8C54 3.58172 50.4183 0 46 0Z" fill="#30ACFC"/>
<path opacity="0.01" d="M46 9H9V46H46V9Z" fill="black"/>
</g>
<path fill-rule="evenodd" clip-rule="evenodd" d="M8.16386 24.6113C7.17665 25.4971 6.36032 26.2476 6.34992 26.279C6.3346 26.3248 8.40815 28.2259 9.72068 29.3696L9.99545 29.609V28.2967L8.89636 27.3199C8.29186 26.7827 7.79727 26.3222 7.79727 26.2965C7.79727 26.2709 8.29186 25.8104 8.89636 25.2731L9.99545 24.2964V23.6478C9.99545 23.2911 9.98725 22.9996 9.97714 23C9.96702 23.0004 9.15106 23.7255 8.16386 24.6113ZM4.5 26.2965V29.0809H5.67236V23.5122H4.5V26.2965ZM12.9996 26.2381C12.0123 27.7336 11.193 28.9864 11.179 29.0221C11.165 29.0577 11.4435 29.0772 11.7977 29.0655L12.4418 29.0443L13.7887 26.9926C14.5295 25.8642 15.1578 24.9332 15.185 24.9236C15.2122 24.9141 15.8515 25.8456 16.6055 26.9936L17.9767 29.0809H19.2447L19.1162 28.8794C19.0456 28.7685 18.2257 27.5162 17.2943 26.0964L15.6008 23.5148L15.1978 23.5169L14.7948 23.5191L12.9996 26.2381ZM19.7231 25.0699L21.2795 26.6275V29.0809H22.4518V26.6275L24.0082 25.0699L25.5647 23.5122H24.1021L22.9839 24.6287L21.8656 25.7452L20.7473 24.6287L19.6291 23.5122H18.1666L19.7231 25.0699ZM26.4091 26.2592C25.4013 27.7701 24.5767 29.023 24.5767 29.0435C24.5767 29.0641 24.8585 29.0809 25.2028 29.0809H25.829L27.1995 26.9938C27.9534 25.8459 28.5866 24.9064 28.6067 24.9061C28.6269 24.9058 29.2616 25.845 30.0174 26.9932L31.3913 29.0809H32.0201C32.366 29.0809 32.638 29.0531 32.6245 29.0192C32.6111 28.9852 31.7923 27.7327 30.8049 26.2358L29.0097 23.5141L28.6256 23.5131L28.2413 23.5122L26.4091 26.2592ZM33.8091 26.2965V29.0809H35.0525L35.0719 26.9605L35.0914 24.8401L37.6413 26.9605L40.1911 29.0809H41.2829V23.5122H40.1105V25.6449C40.1105 27.4596 40.095 27.7717 40.0063 27.7377C39.9489 27.7156 38.7782 26.7559 37.4047 25.6049L34.9076 23.5122H33.8091V26.2965ZM43.5099 23.6155C42.4235 23.8791 42.3732 24.0045 42.3986 26.3829C42.4216 28.5374 42.4183 28.5259 43.0819 28.8611L43.4445 29.0443H48.427L48.7895 28.8611C49.4026 28.5513 49.4491 28.437 49.4764 27.1708L49.5 26.0767H48.1705V27.0607C48.1705 27.8331 48.1472 28.068 48.0617 28.1534C47.7977 28.4175 43.9954 28.4298 43.8033 28.1672C43.6917 28.0146 43.6494 24.7284 43.757 24.5673C43.9072 24.3422 44.1594 24.3182 46.3699 24.3182H48.6088L48.8641 23.9701C49.0045 23.7787 49.1203 23.5973 49.1213 23.5671C49.1245 23.4697 43.9259 23.5145 43.5099 23.6155Z" fill="white"/>
</g>
<defs>
<clipPath id="clip0_10001_15650">
<rect width="54" height="54" fill="white"/>
</clipPath>
</defs>
</svg>
