<svg width="54" height="54" viewBox="0 0 54 54" fill="none" xmlns="http://www.w3.org/2000/svg">
<mask id="mask0_606_5686" style="mask-type:alpha" maskUnits="userSpaceOnUse" x="0" y="0" width="54" height="54">
<path d="M46 0H8C3.58172 0 0 3.58172 0 8V46C0 50.4183 3.58172 54 8 54H46C50.4183 54 54 50.4183 54 46V8C54 3.58172 50.4183 0 46 0Z" fill="white"/>
</mask>
<g mask="url(#mask0_606_5686)">
<path d="M34.9339 21.8444V18.2845C35.8941 17.8357 36.5096 16.8736 36.5145 15.8137V15.732C36.5145 14.218 35.2871 12.9906 33.7732 12.9906H33.6914C32.1774 12.9906 30.9501 14.218 30.9501 15.732V15.8137C30.955 16.8736 31.5704 17.8357 32.5307 18.2845V21.8444C31.1786 22.0514 29.9053 22.6121 28.8396 23.4695L19.0765 15.8651C19.1461 15.6137 19.1824 15.3553 19.1865 15.0959C19.189 13.8465 18.4384 12.7187 17.285 12.2385C16.1316 11.7583 14.8024 12.0204 13.9175 12.9024C13.0326 13.7844 12.7663 15.1127 13.2428 16.2677C13.7192 17.4227 14.8446 18.1769 16.094 18.1785C16.6284 18.176 17.1529 18.0333 17.615 17.7647L27.2288 25.2457C25.4613 27.9157 25.5086 31.3956 27.3479 34.0168L24.4239 36.9416C24.1874 36.8661 23.9413 36.8259 23.6931 36.8226C22.2927 36.8238 21.1583 37.9594 21.1586 39.3598C21.159 40.76 22.2942 41.8951 23.6944 41.8955C25.0948 41.8958 26.2304 40.7614 26.2317 39.361C26.2284 39.1129 26.1882 38.8666 26.1125 38.6304L29.0051 35.7366C31.5897 37.7263 35.1396 37.8978 37.904 36.1664C40.6683 34.4348 42.0633 31.166 41.401 27.9722C40.7386 24.7783 38.1588 22.3338 34.9339 21.8442V21.8444ZM33.7349 33.5524C32.28 33.5915 30.9185 32.8377 30.1796 31.5839C29.4406 30.3301 29.4406 28.7739 30.1796 27.52C30.9185 26.2662 32.28 25.5124 33.7349 25.5515C35.8884 25.6269 37.5956 27.3941 37.5968 29.5491C37.5978 31.7038 35.8924 33.4728 33.7388 33.5504" fill="#FF7A59"/>
</g>
</svg>
