<svg width="208" height="106" viewBox="0 0 208 106" fill="none" xmlns="http://www.w3.org/2000/svg">
<path d="M204 0H4C1.79086 0 0 1.79086 0 4V102C0 104.209 1.79086 106 4 106H204C206.209 106 208 104.209 208 102V4C208 1.79086 206.209 0 204 0Z" fill="white"/>
<g clip-path="url(#clip0_1832_2)">
<path fill-rule="evenodd" clip-rule="evenodd" d="M58 76H103.974L148.966 31H58V76Z" fill="url(#paint0_linear_1832_2)"/>
<path fill-rule="evenodd" clip-rule="evenodd" d="M111.984 40.0001H103L103.03 61.1301L95.207 39.9931H87.45L80.772 57.6461C80.062 53.1541 75.418 51.6041 71.764 50.4431C69.351 49.6681 66.79 48.5281 66.816 47.2681C66.836 46.2341 68.186 45.2751 70.869 45.4181C72.669 45.5151 74.259 45.6601 77.422 47.1881L80.532 41.7681C77.648 40.3001 73.66 39.3731 70.39 39.3701H70.37C66.557 39.3701 63.382 40.6051 61.414 42.6401C60.042 44.0601 59.302 45.8661 59.272 47.8631C59.222 50.6111 60.229 52.5591 62.345 54.1161C64.133 55.4261 66.42 56.2761 68.435 56.9001C70.92 57.6701 72.95 58.3401 72.925 59.7661C72.905 60.2861 72.709 60.7721 72.335 61.1641C71.715 61.8041 70.765 62.0441 69.45 62.0701C66.913 62.1241 65.033 61.7251 62.037 59.9541L59.27 65.4441C62.263 67.1461 65.44 68.0001 69.05 68.0001L69.862 67.9941C73.004 67.9371 75.554 67.1841 77.58 65.5541C77.696 65.4611 77.8 65.3671 77.908 65.2721L77.568 67.0241L85.148 67.0001L86.508 63.5181C87.938 64.0061 89.564 64.2761 91.29 64.2761C92.972 64.2761 94.554 64.0201 95.957 63.5601L96.905 67.0001L110.505 67.0131L110.538 59.0751H113.432C120.427 59.0751 124.562 55.5151 124.562 49.5451C124.56 42.8961 120.54 40.0001 111.984 40.0001ZM91.29 58.0621C90.245 58.0621 89.265 57.8801 88.422 57.5601L91.258 48.6051H91.313L94.103 57.5851C93.263 57.8851 92.306 58.0621 91.289 58.0621H91.29ZM112.51 52.9171H110.536V45.7001H112.511C115.141 45.7001 117.241 46.5761 117.241 49.2621C117.239 52.0421 115.141 52.9171 112.511 52.9171" fill="white"/>
</g>
<defs>
<linearGradient id="paint0_linear_1832_2" x1="103.483" y1="31" x2="103.483" y2="76.001" gradientUnits="userSpaceOnUse">
<stop stop-color="#00AEEF"/>
<stop offset="0.212" stop-color="#0097DC"/>
<stop offset="0.519" stop-color="#007CC5"/>
<stop offset="0.792" stop-color="#006CB8"/>
<stop offset="1" stop-color="#0066B3"/>
</linearGradient>
<clipPath id="clip0_1832_2">
<rect width="92" height="45" fill="white" transform="translate(58 31)"/>
</clipPath>
</defs>
</svg>
