<svg width="480" height="240" viewBox="0 0 480 240" fill="none" xmlns="http://www.w3.org/2000/svg">
<g clip-path="url(#clip0_1103_65973)">
<mask id="mask0_1103_65973" style="mask-type:alpha" maskUnits="userSpaceOnUse" x="-720" y="0" width="1200" height="240">
<rect x="-720" width="1200" height="240" fill="#215AE5"/>
</mask>
<g mask="url(#mask0_1103_65973)">
<path opacity="0.4" d="M187.827 176.837C188.05 177.086 188.274 177.328 188.496 177.577C188.63 177.728 188.764 177.872 188.898 178.023C189.38 178.578 189.876 179.129 190.38 179.668C248.632 242.608 346.853 246.061 409.318 187.365C471.789 128.677 475.215 29.7201 416.957 -33.2204C358.704 -96.16 260.484 -99.613 198.012 -40.9181C136.479 16.9047 132.241 113.8 187.827 176.837ZM194.207 69.0992C172.19 89.7854 164.807 120.446 172.507 147.791C162.496 117.168 170.215 82.0633 195.115 58.6662C229.233 26.6144 282.872 28.4955 314.685 62.869C320.352 68.9876 320.017 78.6113 313.944 84.32C307.871 90.0288 298.318 89.6912 292.652 83.5725C266.358 55.1652 222.022 53.6039 193.826 80.0942C174.028 98.6956 167.368 126.257 174.259 150.862C165.055 122.985 172.047 90.9726 194.734 69.6613C225.737 40.5337 274.479 42.2509 303.384 73.4787L303.949 72.949C274.751 41.4163 225.518 39.6845 194.207 69.0992ZM194.351 80.6691C222.237 54.4722 266.078 56.0117 292.08 84.1076C298.037 90.544 308.08 90.8962 314.468 84.895C320.857 78.8937 321.206 68.7757 315.25 62.3393C283.145 27.6546 229.016 25.7524 194.583 58.0968C170.337 80.8862 162.232 114.686 170.782 144.803C159.92 111.413 168.355 73.1695 195.491 47.6702C232.724 12.6877 291.264 14.7466 325.98 52.2583C337.458 64.6545 336.784 84.1496 324.474 95.7123C312.163 107.275 292.82 106.597 281.343 94.1941C257.952 68.9251 218.517 67.535 193.436 91.1011C175.789 107.692 169.895 132.292 176.106 154.215C167.576 129.025 173.814 99.9701 194.351 80.6691ZM193.975 91.6715C218.746 68.3989 257.685 69.767 280.785 94.7246C292.553 107.439 312.394 108.132 325.012 96.2827C337.631 84.4265 338.326 64.4381 326.558 51.7242C291.544 13.9001 232.521 11.8212 194.972 47.0963C168.477 71.9859 159.658 108.925 169.058 141.808C157.346 105.653 166.502 64.2702 195.873 36.6688C236.221 -1.23804 299.657 0.991219 337.282 41.6422C354.57 60.3223 353.552 89.6814 335.017 107.1C316.482 124.519 287.335 123.491 270.046 104.818C249.564 82.6878 215.024 81.4745 193.059 102.11C177.738 116.508 172.529 137.787 177.726 156.861C170.224 134.51 175.765 108.779 193.975 91.6715ZM193.592 102.673C215.248 82.331 249.292 83.5224 269.483 105.341C287.062 124.332 316.7 125.374 335.55 107.663C354.4 89.9519 355.434 60.0922 337.855 41.1007C299.938 0.138395 236.013 -2.11184 195.349 36.0875C166.618 63.0857 157.077 103.163 167.334 138.807C154.766 99.8845 164.638 55.3562 196.257 25.6546C239.721 -15.1829 308.058 -12.776 348.586 31.0133C371.686 55.9709 370.328 95.2014 345.556 118.474C320.784 141.747 281.846 140.378 258.746 115.421C241.167 96.4294 211.529 95.3874 192.679 113.099C179.594 125.388 175.105 143.535 179.453 159.836C172.798 140.271 177.624 117.68 193.592 102.673ZM193.21 113.674C211.751 96.2567 240.892 97.2832 258.181 115.957C281.572 141.226 321.007 142.616 346.087 119.05C371.168 95.4838 372.548 55.7536 349.157 30.4846C308.331 -13.6169 239.51 -16.0376 195.731 25.0924C164.758 54.1919 154.508 97.4095 165.608 135.825C152.189 94.1365 162.784 46.4698 196.639 14.6595C243.218 -29.1023 316.451 -26.5313 359.888 20.3971C388.799 51.6323 387.095 100.74 356.1 129.862C325.105 158.984 276.355 157.272 247.45 126.044C232.779 110.192 208.037 109.321 192.302 124.107C181.458 134.296 177.679 149.303 181.183 162.832C175.374 146.025 179.483 126.58 193.21 113.674ZM192.828 124.676C208.253 110.189 232.499 111.039 246.878 126.579C276.08 158.126 325.307 159.857 356.625 130.437C387.943 101.017 389.654 51.4204 360.452 19.8675C316.724 -27.3723 243.001 -29.9642 196.107 14.0901C162.904 45.299 151.932 91.6551 163.883 132.837C149.614 88.3821 160.923 37.5759 197.02 3.66446C246.715 -43.028 324.85 -40.2793 371.189 9.78744C405.912 47.3001 403.869 106.279 366.636 141.255C329.404 176.231 270.869 174.179 236.147 136.667C224.379 123.953 204.538 123.259 191.92 135.109C183.281 143.223 180.234 155.152 182.948 165.95C177.92 151.886 181.306 135.507 192.828 124.676ZM192.445 135.677C204.749 124.114 224.099 124.793 235.576 137.195C270.59 175.02 329.613 177.098 367.162 141.823C404.711 106.548 406.767 47.0818 371.754 9.25141C325.117 -41.1277 246.499 -43.8963 196.489 3.0886C161.045 36.3987 149.35 85.8997 162.164 129.849C147.038 82.6276 159.064 28.6757 197.402 -7.33699C250.212 -56.9537 333.243 -54.0347 382.491 -0.828682C423.025 42.9615 420.637 111.811 377.173 152.642C333.71 193.473 265.379 191.073 224.845 147.283C215.985 137.708 201.041 137.185 191.537 146.11C185.125 152.141 182.809 160.952 184.704 168.995C180.497 157.68 183.15 144.418 192.445 135.677ZM192.069 146.68C201.257 138.047 215.712 138.549 224.28 147.813C265.106 191.914 333.927 194.335 377.706 153.205C421.486 112.075 423.882 42.7369 383.057 -1.37108C333.518 -54.8885 249.997 -57.8285 196.872 -7.91924C159.186 27.4985 146.775 80.1453 160.439 126.861C144.464 76.8668 157.21 19.7828 197.778 -18.3394C253.704 -70.8868 341.636 -67.79 393.787 -11.4457C440.132 38.622 437.405 117.342 387.711 164.028C338.017 210.714 259.881 207.972 213.542 157.905C207.585 151.469 197.542 151.117 191.154 157.118C186.948 161.068 185.378 166.797 186.485 172.09C183.059 163.524 184.973 153.346 192.069 146.68ZM191.687 157.681C197.76 151.972 207.312 152.31 212.978 158.429C259.615 208.808 338.233 211.576 388.244 164.591C438.254 117.607 440.995 38.3983 394.359 -11.9872C341.912 -68.6502 253.495 -71.7542 197.255 -18.9207C157.326 18.6047 144.2 74.3845 158.715 123.866C141.894 71.1133 155.351 10.8825 198.167 -29.3399C257.208 -84.8116 350.036 -81.5508 405.095 -22.0609C457.252 34.2843 454.179 122.875 398.254 175.416C342.329 227.957 254.397 224.867 202.246 168.523C199.198 165.225 194.051 165.044 190.778 168.12C188.806 169.975 187.967 172.592 188.271 175.101C185.654 169.32 186.825 162.252 191.687 157.681ZM416.391 -32.6844C474.36 29.9384 470.948 128.401 408.792 186.797C346.637 245.192 248.906 241.76 190.944 179.139C190.771 178.949 190.625 178.751 190.458 178.563C188.213 175.582 188.527 171.298 191.303 168.689C194.262 165.905 198.918 166.072 201.675 169.051C254.124 225.708 342.54 228.818 398.78 175.985C455.021 123.145 458.101 34.0651 405.66 -22.5969C350.31 -82.3982 256.991 -85.6735 197.635 -29.9093C155.465 9.71082 141.624 68.6365 156.988 120.884C139.313 65.358 153.492 1.98233 198.543 -40.3423C260.7 -98.7446 358.429 -95.3062 416.391 -32.6844Z" fill="url(#paint0_linear_1103_65973)"/>
<rect x="80.0986" y="68.5986" width="204" height="137" rx="12" fill="#F2F4F6"/>
<path d="M104.139 88.5986H93.0361C91.9661 88.5986 91.0986 89.4694 91.0986 90.5434V90.6409C91.0986 91.715 91.9661 92.5857 93.0361 92.5857H104.139C105.209 92.5857 106.076 91.715 106.076 90.6409V90.5434C106.076 89.4694 105.209 88.5986 104.139 88.5986Z" fill="#ABB2BF"/>
<path d="M115.31 99.0659H91.583C91.3155 99.0659 91.0986 99.2836 91.0986 99.5521V103.442C91.0986 103.71 91.3155 103.928 91.583 103.928H115.31C115.577 103.928 115.794 103.71 115.794 103.442V99.5521C115.794 99.2836 115.577 99.0659 115.31 99.0659Z" fill="#E5E6EB"/>
<path d="M129.047 99.0659H125.172C124.904 99.0659 124.688 99.2836 124.688 99.5521V103.442C124.688 103.71 124.904 103.928 125.172 103.928H129.047C129.314 103.928 129.531 103.71 129.531 103.442V99.5521C129.531 99.2836 129.314 99.0659 129.047 99.0659Z" fill="#E5E6EB"/>
<path d="M122.266 99.0659H118.391C118.123 99.0659 117.906 99.2836 117.906 99.5521V103.442C117.906 103.71 118.123 103.928 118.391 103.928H122.266C122.533 103.928 122.75 103.71 122.75 103.442V99.5521C122.75 99.2836 122.533 99.0659 122.266 99.0659Z" fill="#E5E6EB"/>
<rect x="258.519" y="88.1641" width="14.8378" height="6.4069" rx="1" fill="#ABB2BF" fill-opacity="0.5"/>
<path d="M80.0986 80.5986C80.0986 73.9712 85.4712 68.5986 92.0986 68.5986L272.099 68.5986C278.726 68.5986 284.099 73.9712 284.099 80.5986V81.4124H80.0986V80.5986Z" fill="#ABB2BF"/>
<ellipse cx="91.5937" cy="75.8835" rx="1.58976" ry="1.60172" fill="white"/>
<ellipse cx="97.9521" cy="75.8835" rx="1.58976" ry="1.60172" fill="white"/>
<ellipse cx="104.311" cy="75.8835" rx="1.58976" ry="1.60172" fill="white"/>
<g filter="url(#filter0_d_1103_65973)">
<rect x="91.0977" y="106.599" width="146" height="78" rx="4" fill="white"/>
</g>
<rect x="101.52" y="114.074" width="8.47875" height="2.13563" rx="1.06782" fill="#ABB2BF"/>
<rect x="101.52" y="133.294" width="8.47875" height="2.13563" rx="1.06782" fill="#ABB2BF"/>
<rect x="101.52" y="118.345" width="38" height="6.4069" rx="0.5" fill="#EDEEEF"/>
<rect x="101.52" y="137.565" width="38" height="6.4069" rx="0.5" fill="#EDEEEF"/>
<rect x="144.52" y="114.074" width="8.47875" height="2.13563" rx="1.06782" fill="#ABB2BF"/>
<rect x="144.52" y="133.294" width="8.47875" height="2.13563" rx="1.06782" fill="#ABB2BF"/>
<rect x="144.52" y="118.345" width="38" height="6.4069" rx="0.5" fill="#EDEEEF"/>
<rect x="144.52" y="137.565" width="38" height="6.4069" rx="0.5" fill="#EDEEEF"/>
<rect x="187.52" y="114.074" width="8.47875" height="2.13563" rx="1.06782" fill="#ABB2BF"/>
<rect x="187.52" y="133.294" width="8.47875" height="2.13563" rx="1.06782" fill="#ABB2BF"/>
<rect x="187.52" y="118.345" width="38" height="6.4069" rx="0.5" fill="#EDEEEF"/>
<rect x="187.52" y="137.565" width="38" height="6.4069" rx="0.5" fill="#EDEEEF"/>
<rect x="110.479" y="154.117" width="8.47875" height="3.20345" rx="0.5" fill="#CFD4DE"/>
<mask id="path-27-inside-1_1103_65973" fill="white">
<rect x="102" y="152.515" width="6.35906" height="6.4069" rx="0.5"/>
</mask>
<rect x="102" y="152.515" width="6.35906" height="6.4069" rx="0.5" stroke="#CFD4DE" stroke-width="2" mask="url(#path-27-inside-1_1103_65973)"/>
<rect x="110.479" y="169.066" width="8.47875" height="3.20345" rx="0.5" fill="#CFD4DE"/>
<mask id="path-29-inside-2_1103_65973" fill="white">
<rect x="102" y="167.464" width="6.35906" height="6.4069" rx="0.5"/>
</mask>
<rect x="102" y="167.464" width="6.35906" height="6.4069" rx="0.5" stroke="#CFD4DE" stroke-width="2" mask="url(#path-29-inside-2_1103_65973)"/>
<rect x="136.479" y="154.117" width="8.47875" height="3.20345" rx="0.5" fill="#CFD4DE"/>
<mask id="path-31-inside-3_1103_65973" fill="white">
<rect x="128" y="152.515" width="6.35906" height="6.4069" rx="0.5"/>
</mask>
<rect x="128" y="152.515" width="6.35906" height="6.4069" rx="0.5" stroke="#CFD4DE" stroke-width="2" mask="url(#path-31-inside-3_1103_65973)"/>
<rect x="136.479" y="169.066" width="8.47875" height="3.20345" rx="0.5" fill="#CFD4DE"/>
<mask id="path-33-inside-4_1103_65973" fill="white">
<rect x="128" y="167.464" width="6.35906" height="6.4069" rx="0.5"/>
</mask>
<rect x="128" y="167.464" width="6.35906" height="6.4069" rx="0.5" stroke="#CFD4DE" stroke-width="2" mask="url(#path-33-inside-4_1103_65973)"/>
<rect x="162.479" y="169.066" width="8.47875" height="3.20345" rx="0.5" fill="#CFD4DE"/>
<mask id="path-35-inside-5_1103_65973" fill="white">
<rect x="154" y="167.464" width="6.35906" height="6.4069" rx="0.5"/>
</mask>
<rect x="154" y="167.464" width="6.35906" height="6.4069" rx="0.5" stroke="#CFD4DE" stroke-width="2" mask="url(#path-35-inside-5_1103_65973)"/>
<rect x="162.479" y="154.117" width="8.47875" height="3.20345" rx="0.5" fill="#CFD4DE"/>
<mask id="path-37-inside-6_1103_65973" fill="white">
<rect x="154" y="152.515" width="6.35906" height="6.4069" rx="0.5"/>
</mask>
<rect x="154" y="152.515" width="6.35906" height="6.4069" rx="0.5" stroke="#CFD4DE" stroke-width="2" mask="url(#path-37-inside-6_1103_65973)"/>
<rect x="188.479" y="154.117" width="8.47875" height="3.20345" rx="0.5" fill="#CFD4DE"/>
<mask id="path-39-inside-7_1103_65973" fill="white">
<rect x="180" y="152.515" width="6.35906" height="6.4069" rx="0.5"/>
</mask>
<rect x="180" y="152.515" width="6.35906" height="6.4069" rx="0.5" stroke="#CFD4DE" stroke-width="2" mask="url(#path-39-inside-7_1103_65973)"/>
<rect x="214.479" y="154.117" width="8.47875" height="3.20345" rx="0.5" fill="#CFD4DE"/>
<mask id="path-41-inside-8_1103_65973" fill="white">
<rect x="206" y="152.515" width="6.35906" height="6.4069" rx="0.5"/>
</mask>
<rect x="206" y="152.515" width="6.35906" height="6.4069" rx="0.5" stroke="#CFD4DE" stroke-width="2" mask="url(#path-41-inside-8_1103_65973)"/>
<g filter="url(#filter1_d_1103_65973)">
<path d="M385.216 106.599H246.979C244.835 106.599 243.098 108.282 243.098 110.358V180.84C243.098 182.916 244.835 184.599 246.979 184.599H385.216C387.36 184.599 389.098 182.916 389.098 180.84V110.358C389.098 108.282 387.36 106.599 385.216 106.599Z" fill="white"/>
</g>
<path d="M378.465 114.027H365.871C365.604 114.027 365.387 114.245 365.387 114.513V119.375C365.387 119.644 365.604 119.861 365.871 119.861H378.465C378.732 119.861 378.949 119.644 378.949 119.375V114.513C378.949 114.245 378.732 114.027 378.465 114.027Z" fill="#215AE5"/>
<path d="M362.454 114.027H354.041C353.774 114.027 353.557 114.245 353.557 114.513V119.375C353.557 119.644 353.774 119.861 354.041 119.861H362.454C362.721 119.861 362.938 119.644 362.938 119.375V114.513C362.938 114.245 362.721 114.027 362.454 114.027Z" fill="#E5E6EB"/>
<path d="M263.184 139.128H254.465C254.197 139.128 253.98 139.346 253.98 139.615V142.532C253.98 142.8 254.197 143.018 254.465 143.018H263.184C263.451 143.018 263.668 142.8 263.668 142.532V139.615C263.668 139.346 263.451 139.128 263.184 139.128Z" fill="white"/>
<path d="M258.34 174.865C261.149 174.865 263.426 172.579 263.426 169.759C263.426 166.94 261.149 164.654 258.34 164.654C255.531 164.654 253.254 166.94 253.254 169.759C253.254 172.579 255.531 174.865 258.34 174.865Z" fill="#1EB76D" stroke="white" stroke-width="0.5"/>
<path d="M258.34 123.531C261.149 123.531 263.426 121.245 263.426 118.425C263.426 115.606 261.149 113.32 258.34 113.32C255.531 113.32 253.254 115.606 253.254 118.425C253.254 121.245 255.531 123.531 258.34 123.531Z" fill="#215AE5" stroke="white" stroke-width="0.5"/>
<path d="M272.973 115.462H267.925C267.11 115.462 266.449 116.126 266.449 116.944C266.449 117.762 267.11 118.425 267.925 118.425H272.973C273.788 118.425 274.449 117.762 274.449 116.944C274.449 116.126 273.788 115.462 272.973 115.462Z" fill="#ABB2BF"/>
<path d="M303.088 120.239H267.323C266.84 120.239 266.449 120.631 266.449 121.116C266.449 121.6 266.84 121.992 267.323 121.992H303.088C303.57 121.992 303.962 121.6 303.962 121.116C303.962 120.631 303.57 120.239 303.088 120.239Z" fill="#EAEBEE"/>
<path d="M267.059 174.865C269.867 174.865 272.145 172.579 272.145 169.759C272.145 166.94 269.867 164.654 267.059 164.654C264.25 164.654 261.973 166.94 261.973 169.759C261.973 172.579 264.25 174.865 267.059 174.865Z" fill="#674DD1" stroke="white" stroke-width="0.5"/>
<path d="M275.777 174.865C278.586 174.865 280.863 172.579 280.863 169.759C280.863 166.94 278.586 164.654 275.777 164.654C272.968 164.654 270.691 166.94 270.691 169.759C270.691 172.579 272.968 174.865 275.777 174.865Z" fill="#F9D54E" stroke="white" stroke-width="0.5"/>
<path d="M284.496 174.865C287.305 174.865 289.582 172.579 289.582 169.759C289.582 166.94 287.305 164.654 284.496 164.654C281.687 164.654 279.41 166.94 279.41 169.759C279.41 172.579 281.687 174.865 284.496 174.865Z" fill="#FB9926" stroke="white" stroke-width="0.5"/>
<path d="M259.793 135.239H253.98C253.445 135.239 253.012 135.674 253.012 136.211C253.012 136.748 253.445 137.184 253.98 137.184H259.793C260.328 137.184 260.762 136.748 260.762 136.211C260.762 135.674 260.328 135.239 259.793 135.239Z" fill="#ABB2BF"/>
<path d="M346.879 135.239H341.066C340.531 135.239 340.098 135.674 340.098 136.211C340.098 136.748 340.531 137.184 341.066 137.184H346.879C347.414 137.184 347.848 136.748 347.848 136.211C347.848 135.674 347.414 135.239 346.879 135.239Z" fill="#ABB2BF"/>
<path d="M303.879 135.239H298.066C297.531 135.239 297.098 135.674 297.098 136.211C297.098 136.748 297.531 137.184 298.066 137.184H303.879C304.414 137.184 304.848 136.748 304.848 136.211C304.848 135.674 304.414 135.239 303.879 135.239Z" fill="#ABB2BF"/>
<path d="M291.363 139.599H253.582C253.315 139.599 253.098 139.816 253.098 140.085V154.947C253.098 155.215 253.315 155.433 253.582 155.433H291.363C291.631 155.433 291.848 155.215 291.848 154.947V140.085C291.848 139.816 291.631 139.599 291.363 139.599Z" fill="#EDEEEF"/>
<path d="M335.363 139.599H297.582C297.315 139.599 297.098 139.816 297.098 140.085V154.947C297.098 155.215 297.315 155.433 297.582 155.433H335.363C335.631 155.433 335.848 155.215 335.848 154.947V140.085C335.848 139.816 335.631 139.599 335.363 139.599Z" fill="#EDEEEF"/>
<path d="M378.363 139.599H340.582C340.315 139.599 340.098 139.816 340.098 140.085V154.947C340.098 155.215 340.315 155.433 340.582 155.433H378.363C378.631 155.433 378.848 155.215 378.848 154.947V140.085C378.848 139.816 378.631 139.599 378.363 139.599Z" fill="#EDEEEF"/>
<rect x="91.0986" y="188.599" width="14.8378" height="6.4069" rx="0.5" fill="#215AE5"/>
<rect x="110.176" y="188.599" width="14.8378" height="6.4069" rx="0.5" fill="#C9CED5"/>
<g filter="url(#filter2_d_1103_65973)">
<path fill-rule="evenodd" clip-rule="evenodd" d="M86.4584 148.181H50.0505C44.5233 148.181 40 143.658 40 138.13V116.305C40 110.777 44.5233 106.255 50.0505 106.255H76.409C81.9362 106.255 86.4584 110.777 86.4584 116.305V148.181Z" fill="white"/>
</g>
<path fill-rule="evenodd" clip-rule="evenodd" d="M62.8091 127.377C58.9484 127.377 55.8215 124.25 55.8215 120.389C55.8215 116.528 58.9484 113.401 62.8091 113.401C66.6698 113.401 69.7967 116.528 69.7967 120.389C69.7967 124.25 66.6698 127.377 62.8091 127.377ZM61.6444 128.614V135.529H63.9736V128.614C68.5691 129.187 72.1258 133.107 72.1258 137.858H53.4922C53.4922 133.163 56.986 129.201 61.6444 128.614Z" fill="#215AE5"/>
<path d="M239.599 154.175C234.723 154.175 230.767 150.189 230.767 145.277C230.767 140.365 234.723 136.378 239.599 136.378C244.474 136.378 248.431 140.365 248.431 145.277C248.431 150.189 244.474 154.175 239.599 154.175Z" fill="#396AFF"/>
<g clip-path="url(#clip1_1103_65973)">
<path d="M236.752 141.599H244.252C244.385 141.599 244.512 141.651 244.606 141.745C244.699 141.839 244.752 141.966 244.752 142.099V145.599H243.752V142.599H236.752V144.099L234.252 142.099L236.752 140.099V141.599ZM242.752 149.599H235.252C235.119 149.599 234.992 149.546 234.898 149.452C234.805 149.358 234.752 149.231 234.752 149.099V145.599H235.752V148.599H242.752V147.099L245.252 149.099L242.752 151.099V149.599Z" fill="white"/>
</g>
<g filter="url(#filter3_d_1103_65973)">
<path fill-rule="evenodd" clip-rule="evenodd" d="M187.01 58.4393H162.445C156.918 58.4393 152.395 53.916 152.395 48.3888V37.2505C152.395 31.7233 156.918 27.2012 162.445 27.2012H176.96C182.488 27.2012 187.01 31.7233 187.01 37.2505V58.4393Z" fill="white"/>
</g>
<g filter="url(#filter4_d_1103_65973)">
<path fill-rule="evenodd" clip-rule="evenodd" d="M295.883 93.6542H320.448C325.975 93.6542 330.498 89.132 330.498 83.6048V72.4665C330.498 66.9393 325.975 62.416 320.448 62.416H305.933C300.405 62.416 295.883 66.9393 295.883 72.4665V93.6542Z" fill="white"/>
</g>
<path fill-rule="evenodd" clip-rule="evenodd" d="M169.701 48.7405H171.437V37.4602L176.985 39.8372C177.304 39.9746 177.511 40.289 177.511 40.6361V48.7405H179.246V50.4758H160.156V48.7405H161.892V37.1562C161.892 36.8138 162.093 36.5029 162.407 36.3631L169.091 33.3922C169.31 33.2944 169.566 33.3934 169.664 33.6123C169.689 33.6682 169.701 33.7288 169.701 33.7894V48.7405Z" fill="#215AE5"/>
<path fill-rule="evenodd" clip-rule="evenodd" d="M313.99 78.8339H317.382C319.255 78.8339 320.774 80.3526 320.774 82.2264C320.774 84.0991 319.255 85.6177 317.382 85.6177C315.509 85.6177 313.99 84.0991 313.99 82.2264V78.8339ZM317.382 70.4531C319.255 70.4531 320.774 71.9718 320.774 73.8456C320.774 75.7183 319.255 77.2369 317.382 77.2369H313.99V73.8456C313.99 71.9718 315.509 70.4531 317.382 70.4531ZM309.001 78.8339H312.393V82.2264C312.393 84.0991 310.875 85.6177 309.001 85.6177C307.128 85.6177 305.609 84.0991 305.609 82.2264C305.609 80.3526 307.128 78.8339 309.001 78.8339ZM309.001 70.4531C310.875 70.4531 312.393 71.9718 312.393 73.8456V77.2369H309.001C307.128 77.2369 305.609 75.7183 305.609 73.8456C305.609 71.9718 307.128 70.4531 309.001 70.4531Z" fill="#215AE5"/>
</g>
</g>
<defs>
<filter id="filter0_d_1103_65973" x="71.0977" y="86.5986" width="186" height="118" filterUnits="userSpaceOnUse" color-interpolation-filters="sRGB">
<feFlood flood-opacity="0" result="BackgroundImageFix"/>
<feColorMatrix in="SourceAlpha" type="matrix" values="0 0 0 0 0 0 0 0 0 0 0 0 0 0 0 0 0 0 127 0" result="hardAlpha"/>
<feOffset/>
<feGaussianBlur stdDeviation="10"/>
<feColorMatrix type="matrix" values="0 0 0 0 0.329412 0 0 0 0 0.34902 0 0 0 0 0.407843 0 0 0 0.2 0"/>
<feBlend mode="normal" in2="BackgroundImageFix" result="effect1_dropShadow_1103_65973"/>
<feBlend mode="normal" in="SourceGraphic" in2="effect1_dropShadow_1103_65973" result="shape"/>
</filter>
<filter id="filter1_d_1103_65973" x="223.098" y="86.5986" width="186" height="118" filterUnits="userSpaceOnUse" color-interpolation-filters="sRGB">
<feFlood flood-opacity="0" result="BackgroundImageFix"/>
<feColorMatrix in="SourceAlpha" type="matrix" values="0 0 0 0 0 0 0 0 0 0 0 0 0 0 0 0 0 0 127 0" result="hardAlpha"/>
<feOffset/>
<feGaussianBlur stdDeviation="10"/>
<feColorMatrix type="matrix" values="0 0 0 0 0.329412 0 0 0 0 0.34902 0 0 0 0 0.407843 0 0 0 0.2 0"/>
<feBlend mode="normal" in2="BackgroundImageFix" result="effect1_dropShadow_1103_65973"/>
<feBlend mode="normal" in="SourceGraphic" in2="effect1_dropShadow_1103_65973" result="shape"/>
</filter>
<filter id="filter2_d_1103_65973" x="35.9058" y="104.89" width="54.6464" height="50.1142" filterUnits="userSpaceOnUse" color-interpolation-filters="sRGB">
<feFlood flood-opacity="0" result="BackgroundImageFix"/>
<feColorMatrix in="SourceAlpha" type="matrix" values="0 0 0 0 0 0 0 0 0 0 0 0 0 0 0 0 0 0 127 0" result="hardAlpha"/>
<feOffset dy="2.72947"/>
<feGaussianBlur stdDeviation="2.0471"/>
<feComposite in2="hardAlpha" operator="out"/>
<feColorMatrix type="matrix" values="0 0 0 0 0.132708 0 0 0 0 0.175013 0 0 0 0 0.325 0 0 0 0.1 0"/>
<feBlend mode="normal" in2="BackgroundImageFix" result="effect1_dropShadow_1103_65973"/>
<feBlend mode="normal" in="SourceGraphic" in2="effect1_dropShadow_1103_65973" result="shape"/>
</filter>
<filter id="filter3_d_1103_65973" x="148.3" y="24.4717" width="42.8036" height="39.4267" filterUnits="userSpaceOnUse" color-interpolation-filters="sRGB">
<feFlood flood-opacity="0" result="BackgroundImageFix"/>
<feColorMatrix in="SourceAlpha" type="matrix" values="0 0 0 0 0 0 0 0 0 0 0 0 0 0 0 0 0 0 127 0" result="hardAlpha"/>
<feOffset dy="1.36473"/>
<feGaussianBlur stdDeviation="2.0471"/>
<feComposite in2="hardAlpha" operator="out"/>
<feColorMatrix type="matrix" values="0 0 0 0 0.132708 0 0 0 0 0.175013 0 0 0 0 0.325 0 0 0 0.1 0"/>
<feBlend mode="normal" in2="BackgroundImageFix" result="effect1_dropShadow_1103_65973"/>
<feBlend mode="normal" in="SourceGraphic" in2="effect1_dropShadow_1103_65973" result="shape"/>
</filter>
<filter id="filter4_d_1103_65973" x="291.789" y="61.0513" width="42.8036" height="39.4267" filterUnits="userSpaceOnUse" color-interpolation-filters="sRGB">
<feFlood flood-opacity="0" result="BackgroundImageFix"/>
<feColorMatrix in="SourceAlpha" type="matrix" values="0 0 0 0 0 0 0 0 0 0 0 0 0 0 0 0 0 0 127 0" result="hardAlpha"/>
<feOffset dy="2.72947"/>
<feGaussianBlur stdDeviation="2.0471"/>
<feComposite in2="hardAlpha" operator="out"/>
<feColorMatrix type="matrix" values="0 0 0 0 0.132708 0 0 0 0 0.175013 0 0 0 0 0.325 0 0 0 0.1 0"/>
<feBlend mode="normal" in2="BackgroundImageFix" result="effect1_dropShadow_1103_65973"/>
<feBlend mode="normal" in="SourceGraphic" in2="effect1_dropShadow_1103_65973" result="shape"/>
</filter>
<linearGradient id="paint0_linear_1103_65973" x1="368.762" y1="-68.3303" x2="236.879" y2="214.124" gradientUnits="userSpaceOnUse">
<stop stop-color="white" stop-opacity="0.7"/>
<stop offset="1" stop-color="white" stop-opacity="0"/>
</linearGradient>
<clipPath id="clip0_1103_65973">
<rect width="480" height="240" fill="white"/>
</clipPath>
<clipPath id="clip1_1103_65973">
<rect width="12" height="12" fill="white" transform="translate(233.752 139.599)"/>
</clipPath>
</defs>
</svg>
